<?xml version="1.0" encoding="UTF-8" standalone="no"?>
<!-- Created with Inkscape (http://www.inkscape.org/) -->

<svg
   width="24"
   height="24"
   viewBox="0 0 6.3499999 6.35"
   version="1.1"
   id="svg1"
   inkscape:version="1.4.4 (dcaf3e7d9e, 2026-05-05)"
   sodipodi:docname="hl1.svg"
   xmlns:inkscape="http://www.inkscape.org/namespaces/inkscape"
   xmlns:sodipodi="http://sodipodi.sourceforge.net/DTD/sodipodi-0.dtd"
   xmlns="http://www.w3.org/2000/svg"
   xmlns:svg="http://www.w3.org/2000/svg">
  <sodipodi:namedview
     id="namedview1"
     pagecolor="#ffffff"
     bordercolor="#000000"
     borderopacity="0.25"
     inkscape:showpageshadow="2"
     inkscape:pageopacity="0.0"
     inkscape:pagecheckerboard="0"
     inkscape:deskcolor="#d1d1d1"
     inkscape:document-units="mm"
     inkscape:zoom="22.627417"
     inkscape:cx="9.921592"
     inkscape:cy="13.788582"
     inkscape:window-width="1920"
     inkscape:window-height="1116"
     inkscape:window-x="0"
     inkscape:window-y="0"
     inkscape:window-maximized="1"
     inkscape:current-layer="layer1" />
  <defs
     id="defs1" />
  <g
     inkscape:label="Layer 1"
     inkscape:groupmode="layer"
     id="layer1">
    <g
       id="g2"
       transform="matrix(0.28190225,0,0,0.28190225,-3.0539579,-12.993817)"
       style="stroke-width:3.54733">
      <path
         style="baseline-shift:baseline;display:inline;overflow:visible;vector-effect:none;fill:#f46a00;stroke-width:2.82529;stroke-linecap:round;paint-order:markers stroke fill;enable-background:accumulate;stop-color:#000000"
         d="m 22.096809,46.09334 c -6.208468,0 -11.263416,5.053655 -11.263416,11.262123 0,6.208467 5.054948,11.263421 11.263416,11.263421 6.208467,0 11.262123,-5.054954 11.262123,-11.263421 0,-6.208468 -5.053656,-11.262123 -11.262123,-11.262123 z m 0,1.98652 c 5.134872,0 9.275602,4.140731 9.275602,9.275603 0,5.134872 -4.14073,9.2769 -9.275602,9.2769 -5.134872,0 -9.276896,-4.142028 -9.276896,-9.2769 0,-5.134872 4.142024,-9.275603 9.276896,-9.275603 z"
         id="path14" />
      <g
         id="g15"
         transform="matrix(0.1752001,0,0,0.1752001,2.1464151,31.934089)"
         style="stroke-width:3.89043">
        <path
           fill="#f37b21"
           d="M 128.14044,181.00172 113.10886,142.90571 91.071116,177.62849 H 77.254653 l 30.778007,-49.70064 -3.45538,-9.82263 H 92.593041 v -11.7043 h 20.514649 l 23.56317,59.91884 10.35952,-3.37479 3.45227,11.60735 z"
           id="path1-7"
           style="fill:#f46a00;fill-opacity:1;stroke-width:3.89043" />
      </g>
    </g>
  </g>
</svg>
