<?xml version="1.0" encoding="UTF-8" standalone="no"?>
<!-- Created with Inkscape (http://www.inkscape.org/) -->

<svg
   width="24"
   height="24"
   viewBox="0 0 6.3499999 6.35"
   version="1.1"
   id="svg1"
   inkscape:version="1.4.4 (dcaf3e7d9e, 2026-05-05)"
   sodipodi:docname="css.svg"
   xmlns:inkscape="http://www.inkscape.org/namespaces/inkscape"
   xmlns:sodipodi="http://sodipodi.sourceforge.net/DTD/sodipodi-0.dtd"
   xmlns="http://www.w3.org/2000/svg"
   xmlns:svg="http://www.w3.org/2000/svg">
  <sodipodi:namedview
     id="namedview1"
     pagecolor="#ffffff"
     bordercolor="#000000"
     borderopacity="0.25"
     inkscape:showpageshadow="2"
     inkscape:pageopacity="0.0"
     inkscape:pagecheckerboard="0"
     inkscape:deskcolor="#d1d1d1"
     inkscape:document-units="mm"
     inkscape:zoom="22.627417"
     inkscape:cx="17.257825"
     inkscape:cy="10.606602"
     inkscape:window-width="1920"
     inkscape:window-height="1116"
     inkscape:window-x="0"
     inkscape:window-y="0"
     inkscape:window-maximized="1"
     inkscape:current-layer="layer1" />
  <defs
     id="defs1" />
  <g
     inkscape:label="Layer 1"
     inkscape:groupmode="layer"
     id="layer1">
    <g
       fill="#231f20"
       id="g2-5"
       transform="matrix(0.02269234,0,0,0.02269234,-5.9829288,1.6271611)"
       style="stroke-width:13.5356">
      <path
         id="path1-8"
         style="fill:#ffce39;fill-opacity:1;stroke-width:13.5356"
         d="m 379.34677,-47.464261 c -63.76913,0 -115.69563,51.9072786 -115.69563,115.676368 0,63.769213 51.9265,115.695623 115.69563,115.695623 35.07804,0 66.56719,-15.71736 87.80208,-40.46971 17.1531,-19.99458 76.33527,-103.580026 76.33651,-132.072255 3.8e-4,-32.492402 -26.34409,-58.830436 -58.83644,-58.830026 -16.17779,-1.99e-4 -82.27527,0 -105.30215,0 z m 0,20.40177 c 42.98653,0 80.59617,28.8743138 91.84648,69.743497 -0.61892,-0.245588 -1.2379,-0.485997 -1.85529,-0.725425 -0.42,0.309 -1.26196,0.92258 -1.68196,1.23258 -5.612,0.46 -11.29872,0.08023 -16.92872,0.141233 0.068,-1.758 0.93939,-3.71759 -0.59061,-5.14859 -0.329,0.391 -0.99245,1.156145 -1.32245,1.547145 -0.442,-0.54 -1.32,-1.617015 -1.759,-2.157015 -0.03,-2.881 -0.0394,-5.760901 -0.0514,-8.640901 -0.5,0.01 -1.49936,0.03678 -2.00936,0.05778 0.01,3.659 -0.007,7.331507 0.0128,10.990507 -0.528,0 -1.59208,-0.01284 -2.11208,-0.01284 0.04,-0.691 0.14259,-2.072466 0.19259,-2.760466 -20.121,-0.201 -40.23149,0.01087 -60.35149,-0.109134 0,-0.46 -0.007,-1.375031 -0.0193,-1.836031 -1.228,-0.299 -2.4528,-0.610114 -3.6528,-0.950114 -0.011,-1.88 -0.0515,-3.799575 -1.00147,-5.469575 -0.822,2.519 -1.30591,5.127207 -1.92591,7.697207 -4.59,-0.32 -8.52036,2.913435 -13.16036,2.163435 -0.23,-2.67 -0.65839,-5.334611 -0.64839,-8.024611 2.17,-0.728 4.84759,-1.01528 6.38759,-2.89528 2.26,-5.569 0.77002,-11.853407 -1.55998,-17.153407 0.13,-0.31 0.37715,-0.9482594 0.50715,-1.2582594 -0.25,-0.46 -0.76431,-1.3917097 -1.01431,-1.8617097 -3.27,-1.23 -6.18954,-3.1273571 -9.10954,-5.0073571 -4.179,-2.06099997 -9.16529,-3.38393246 -13.72529,-1.80393246 -13.772,2.47999996 -21.02045,20.09580066 -14.95145,32.14980066 -0.73,0.67 -1.45912,1.358621 -2.18912,2.028621 -2.658,-3.65 -7.391,-2.638735 -11.151,-1.739735 -7.959,2.679 -13.05823,10.026724 -15.72823,17.647724 -3.318,8.951 -3.02897,18.69194 -1.88097,28.02194 -3.7,1.761 -7.881,0.640005 -11.671,1.958005 -0.078,2.154948 -0.16756,4.312089 -0.2953,6.464627 -1.23717,-6.14234 -1.88739,-12.500687 -1.88739,-19.015118 0,-52.741904 42.54558,-95.274598 95.28744,-95.274598 z m 64.42799,72.869885 c 1.96,1.261 4.3967,1.409622 6.6187,0.789622 3.738,-1.229 7.72112,-0.551845 11.58112,-0.731845 2.51,0.068 5.30264,-0.498642 7.38264,1.290358 0.9543,-0.165669 1.913,-0.274497 2.87602,-0.346664 1.55745,6.849837 2.3817,14.010052 2.3817,21.403242 0,0.374798 -0.002,0.74989 -0.006,1.123446 -0.59878,52.221677 -42.89445,94.163987 -95.26175,94.163987 -3.31526,0 -6.59548,-0.17256 -9.82213,-0.50073 0.24076,-1.13327 0.23969,-2.06982 0.006,-2.55504 -3.57,-6.75 -8.21727,-12.8708 -13.32727,-18.5208 -0.91,-2.66 -1.19245,-5.48536 -1.84245,-8.20436 0.5,-1.019 1.0133,-2.03293 1.5343,-3.04293 2.29,0.319 5.29931,2.53876 7.20931,0.37876 2.18,-3.33 3.93058,-7.06458 3.71058,-11.14458 -0.03,-6.949 1.94654,-13.83027 0.95654,-20.761274 -0.55,-3.18 -3.10784,-5.463766 -6.20784,-6.053766 0.621,-2.25 1.2185,-4.51229 1.5985,-6.81129 8.16,4.199 16.07049,9.711129 25.46049,10.541129 6.87596,0.203065 8.10992,-3.853285 11.95992,-6.092285 5.02,-3.572 3.69117,-10.55688 5.86117,-15.67688 1.51,-0.5 3.04724,-0.954072 4.57724,-1.393072 -0.79,-4.979 -2.818,-9.770098 -2.478,-14.900098 2.732,-2.04 5.94166,-4.26733 7.06166,-7.60733 1.058,-0.519 2.13058,-1.051342 3.19058,-1.611342 7.75,-0.12 15.49853,0.04964 23.25853,-0.05136 1.972,0.101 1.24848,-2.514901 1.72048,-3.684901 z m -47.78174,7.119435 c 0.67,1.579 1.05332,3.252419 1.21332,4.962419 -0.359,0.361 -1.09085,1.100109 -1.45085,1.470109 -1.72,3.728 -4.25784,7.248061 -7.44684,9.867061 -1.04229,-2.558608 -2.30144,-5.018225 -3.76194,-7.363383 -0.34,-2.022 2.5775,-2.595026 3.8775,-3.595026 0.83,-0.449 1.65158,-0.916911 2.47158,-1.405911 -1.682,-1.78 -0.11064,-2.903912 1.48936,-3.883912 1.2,-0.01 2.40787,-0.03036 3.60787,-0.05136 z"
         sodipodi:nodetypes="ssscccssccccccccccccccccccccccccccccccccssscccccscsccccccccccccccccccccscccccccss" />
      <g
         fill="#231f20"
         id="g2-3"
         transform="matrix(3.8157258,0,0,3.8157258,145.06015,1548.418)"
         style="stroke-width:13.5356" />
    </g>
  </g>
</svg>
